<?xml version="1.0" encoding="UTF-8"?>
<svg xmlns="http://www.w3.org/2000/svg" xmlns:xlink="http://www.w3.org/1999/xlink" width="350px" height="350px" viewBox="0 0 350 350" version="1.1">
<g id="surface1">
<path style="fill:none;stroke-width:2;stroke-linecap:round;stroke-linejoin:round;stroke:rgb(0%,0%,0%);stroke-opacity:1;stroke-miterlimit:4;" d="M 9 18.999911 C 3.999911 20.499911 3.999911 16.5 2.000089 15.999911 M 15.999911 21.999911 L 15.999911 18.129911 C 16.075982 17.165357 15.733393 16.214732 15.06 15.519911 C 18.200089 15.170089 21.500089 13.98 21.500089 8.52 C 21.499821 7.123929 20.962768 5.781161 20.000089 4.77 C 20.455982 3.548571 20.423571 2.198304 19.910089 0.999911 C 19.910089 0.999911 18.729911 0.650089 15.999911 2.480089 C 13.708125 1.858929 11.292054 1.858929 9 2.480089 C 6.27 0.650089 5.090089 0.999911 5.090089 0.999911 C 4.576339 2.198304 4.544196 3.548571 5.000089 4.77 C 4.030179 5.788661 3.492589 7.143482 3.500089 8.55 C 3.500089 13.970089 6.800089 15.159911 9.939911 15.549911 C 9.274554 16.2375 8.932768 17.175536 9 18.129911 L 9 21.999911 " transform="matrix(14.583333,0,0,14.583333,0,0)"/>
</g>
</svg>
